# xmcd
#
# Track frame offsets: 
#        187
#        16695
#        29497
#        58915
#        82087
#        113967
#        135702
#        155032
#        184945
#        208762
#        242247
#
# Disc length: 3660 seconds
#
# Revision: 4
# Processed by: cddbd v1.5PL3 Copyright (c) Steve Scherf et al.
# Submitted via: ExactAudioCopy v0.95a5
#
DISCID=9f0e4a0b
DTITLE=Eric Clapton - Backtrackin' [CD2]
DYEAR=1984
DGENRE=Rock
TTITLE0=Cocaine
TTITLE1=Cream - Strange Brew
TTITLE2=Cream - Spoonful
TTITLE3=Let It Rain
TTITLE4=Derek and The Dominos - Have You Ever Loved A Woman?
TTITLE5=Blind Faith - Presence Of The Lord
TTITLE6=Cream - Crossroads (Live)
TTITLE7=Derek and The Dominos - Roll It Over (Live)
TTITLE8=Can't Find My Way Home (Live)
TTITLE9=Blues Power (Live)
TTITLE10=Further On Up The Road (Live)
EXTD=YEAR: 1984
EXTT0=
EXTT1=
EXTT2=
EXTT3=
EXTT4=
EXTT5=
EXTT6=
EXTT7=
EXTT8=
EXTT9=
EXTT10=
PLAYORDER=
